<?xml version="1.0" encoding="UTF-8" standalone="no"?>
<svg
   xmlns:dc="http://purl.org/dc/elements/1.1/"
   xmlns:cc="http://creativecommons.org/ns#"
   xmlns:rdf="http://www.w3.org/1999/02/22-rdf-syntax-ns#"
   xmlns:svg="http://www.w3.org/2000/svg"
   xmlns="http://www.w3.org/2000/svg"
   xml:space="preserve"
   viewBox="0 0 24 24"
   height="24"
   width="24"
   y="0px"
   x="0px"
   id="Capa_1"
   version="1.1"><metadata
   id="metadata43"><rdf:RDF><cc:Work
       rdf:about=""><dc:format>image/svg+xml</dc:format><dc:type
         rdf:resource="http://purl.org/dc/dcmitype/StillImage" /><dc:title></dc:title></cc:Work></rdf:RDF></metadata><defs
   id="defs41" />
<g
   id="g866"><g
     id="g6"
     transform="matrix(0.04656828,0,0,0.04656828,0.23966817,0.15680936)"
     style="stroke-width:21.47384453">
	<g
   id="g4"
   style="stroke-width:21.47384453">
		<path
   style="fill:#ffcc00;stroke-width:21.47384453"
   d="m 34.262,333.282 c 25.57331,17.74185 5.847983,53.70511 24.683423,76.70559 18.512081,36.98827 63.211007,57.31383 103.299297,47.26168 29.17036,1.45902 42.5398,37.06804 73.11755,38.51289 34.24847,8.16056 71.18467,-6.7406 92.50959,-34.22759 20.6822,-16.199 46.62436,5.93982 69.83164,-3.83107 50.30882,-9.53341 83.04018,-64.5786 71.74831,-113.68765 3.30804,-28.65667 36.72797,-43.47392 38.10546,-74.06598 8.41576,-36.96212 -8.02185,-76.41117 -37.9413,-98.94479 C 453.11973,148.69119 467.42569,114.1921 446.03787,91.793436 425.68661,59.436045 384.37238,43.262206 347.36028,52.353016 318.18919,50.895181 304.81977,15.285162 274.24173,13.840703 241.42672,6.0392408 206.02973,19.393269 184.44737,44.821082 160.76899,61.555795 129.22542,40.839565 104.14961,57.427516 63.946689,74.17463 41.316034,120.54599 49.114039,162.79022 40.27103,190.94217 4.8993191,204.49536 2.5653594,237.31253 -5.8416071,271.97692 6.4950965,310.6306 34.262,333.282 Z"
   id="path852" /><path
   style="fill:#ffffff;stroke-width:21.47384453"
   d="m 131.475,263.016 c 10.36649,-6.77472 19.9347,8.30218 29.31905,12.65227 12.88659,7.80598 23.89341,19.77321 38.35495,24.14473 15.05208,-4.76918 23.80821,-19.95435 35.58654,-29.94029 46.15152,-45.84016 91.61489,-92.43266 138.21238,-137.78523 19.21926,-17.26538 30.97019,13.04513 13.07725,23.50316 -60.41045,73.0924 -120.27055,146.68174 -181.02542,219.46314 -14.78689,10.09313 -20.77209,-10.42798 -26.77243,-20.0151 -15.56133,-28.25866 -31.47634,-56.33234 -46.81546,-84.70723 -0.86149,-2.30765 -1.17984,-5.06436 0.0631,-7.31545 z"
   id="path2" />
	</g>
</g></g>
<g
   transform="translate(0,-485.604)"
   id="g8">
</g>
<g
   transform="translate(0,-485.604)"
   id="g10">
</g>
<g
   transform="translate(0,-485.604)"
   id="g12">
</g>
<g
   transform="translate(0,-485.604)"
   id="g14">
</g>
<g
   transform="translate(0,-485.604)"
   id="g16">
</g>
<g
   transform="translate(0,-485.604)"
   id="g18">
</g>
<g
   transform="translate(0,-485.604)"
   id="g20">
</g>
<g
   transform="translate(0,-485.604)"
   id="g22">
</g>
<g
   transform="translate(0,-485.604)"
   id="g24">
</g>
<g
   transform="translate(0,-485.604)"
   id="g26">
</g>
<g
   transform="translate(0,-485.604)"
   id="g28">
</g>
<g
   transform="translate(0,-485.604)"
   id="g30">
</g>
<g
   transform="translate(0,-485.604)"
   id="g32">
</g>
<g
   transform="translate(0,-485.604)"
   id="g34">
</g>
<g
   transform="translate(0,-485.604)"
   id="g36">
</g>
</svg>